<?xml version="1.0" encoding="UTF-8"?>
<svg xmlns="http://www.w3.org/2000/svg" xmlns:xlink="http://www.w3.org/1999/xlink" width="920px" height="909px" viewBox="0 0 919 909" version="1.1">
<g id="surface1">
<path style=" stroke:none;fill-rule:evenodd;fill:rgb(0%,65.098039%,31.372549%);fill-opacity:1;" d="M 456.839844 0.582031 C 206.410156 0.582031 3.371094 203.773438 3.371094 454.433594 C 3.371094 705.074219 206.410156 908.261719 456.839844 908.261719 C 707.261719 908.261719 910.285156 705.074219 910.285156 454.433594 C 910.285156 203.773438 707.261719 0.582031 456.839844 0.582031 "/>
<path style=" stroke:none;fill-rule:evenodd;fill:rgb(0%,65.098039%,31.372549%);fill-opacity:1;" d="M 456.839844 50.898438 C 234.179688 50.898438 53.648438 231.5625 53.648438 454.429688 C 53.648438 677.28125 234.179688 857.941406 456.839844 857.941406 C 679.496094 857.941406 860.011719 677.28125 860.011719 454.429688 C 860.011719 231.5625 679.496094 50.898438 456.839844 50.898438 "/>
<path style=" stroke:none;fill-rule:nonzero;fill:rgb(100%,100%,100%);fill-opacity:1;" d="M 456.839844 61.753906 L 456.796875 61.753906 L 456.796875 61.710938 C 348.511719 61.71875 250.425781 105.6875 179.402344 176.773438 C 108.410156 247.832031 64.472656 345.976562 64.453125 454.339844 L 64.5 454.339844 L 64.5 454.476562 L 64.453125 454.476562 C 64.464844 562.859375 108.410156 661.027344 179.425781 732.101562 C 250.433594 803.15625 348.492188 847.109375 456.75 847.128906 L 456.75 847.085938 L 456.886719 847.085938 L 456.886719 847.128906 C 565.171875 847.121094 663.261719 803.140625 734.269531 732.070312 C 805.257812 661.015625 849.183594 562.871094 849.199219 454.523438 L 849.164062 454.523438 L 849.164062 454.390625 L 849.199219 454.390625 C 849.199219 345.992188 805.246094 247.8125 734.234375 176.742188 C 663.234375 105.6875 565.183594 61.734375 456.933594 61.710938 L 456.933594 61.753906 Z M 456.796875 40.082031 L 456.796875 40.046875 L 456.933594 40.046875 L 456.933594 40.082031 C 571.230469 40.109375 674.695312 86.460938 749.566406 161.398438 C 824.457031 236.34375 870.796875 339.945312 870.8125 454.390625 L 870.855469 454.390625 L 870.855469 454.523438 L 870.8125 454.523438 C 870.78125 568.921875 824.464844 672.484375 749.601562 747.417969 C 674.71875 822.367188 571.214844 868.742188 456.886719 868.753906 L 456.886719 868.796875 L 456.75 868.796875 L 456.75 868.753906 C 342.445312 868.730469 238.972656 822.378906 164.089844 747.449219 C 89.199219 672.5 42.859375 568.910156 42.847656 454.476562 L 42.804688 454.476562 L 42.804688 454.339844 L 42.847656 454.339844 C 42.875 339.925781 89.199219 236.363281 164.070312 161.425781 C 238.960938 86.460938 342.46875 40.097656 456.796875 40.082031 "/>
<path style=" stroke:none;fill-rule:evenodd;fill:rgb(100%,100%,100%);fill-opacity:1;" d="M 337.722656 662.082031 L 345.863281 637.003906 L 346.261719 637.003906 L 354.527344 662.082031 Z M 382.613281 677.710938 C 377.625 664.304688 371.957031 648.8125 366.316406 633.207031 L 357.398438 608.394531 L 348.359375 610.210938 L 322.113281 678.097656 C 317.808594 689.128906 315.820312 689.636719 309.121094 690.570312 L 309.132812 695.695312 L 339.691406 695.695312 L 339.691406 690.570312 L 335.914062 690.175781 C 329.867188 689.507812 329.867188 688.207031 331.5625 682.574219 L 335.515625 669.96875 L 357.023438 669.96875 L 361.753906 683.355469 C 363.441406 688.074219 363.167969 689.402344 358.335938 690.046875 L 354.378906 690.570312 L 354.378906 695.695312 L 395.578125 695.695312 L 395.578125 690.570312 C 389.15625 689.804688 386.789062 689.128906 382.613281 677.710938 Z M 570.285156 662.082031 L 578.445312 637.003906 L 578.8125 637.003906 L 587.105469 662.082031 Z M 615.164062 677.710938 C 610.175781 664.304688 604.535156 648.8125 598.898438 633.207031 L 589.980469 608.394531 L 580.914062 610.210938 L 554.667969 678.097656 C 550.339844 689.128906 548.417969 689.636719 541.71875 690.570312 L 541.71875 695.695312 L 572.289062 695.695312 L 572.289062 690.570312 L 568.472656 690.175781 C 562.429688 689.507812 562.429688 688.207031 564.136719 682.574219 L 568.066406 669.96875 L 589.574219 669.96875 L 594.3125 683.355469 C 595.992188 688.074219 595.722656 689.402344 590.886719 690.046875 L 586.957031 690.570312 L 586.957031 695.695312 L 628.15625 695.695312 L 628.15625 690.570312 C 621.714844 689.804688 619.386719 689.128906 615.164062 677.710938 Z M 725.769531 685.0625 C 723.003906 688.464844 717.363281 688.851562 713.183594 688.851562 C 709.097656 688.851562 706.082031 688.746094 703.96875 687.691406 C 701.605469 686.507812 701.34375 683.222656 701.34375 676.386719 L 701.34375 631.351562 C 701.34375 617.175781 702.40625 616.273438 711.871094 615.484375 L 711.871094 610.34375 L 669.210938 610.34375 L 669.210938 615.484375 C 678.027344 616.273438 679.082031 617.175781 679.082031 631.351562 L 679.082031 674.671875 C 679.082031 688.851562 678.027344 689.804688 668.046875 690.570312 L 668.046875 695.695312 L 733.128906 695.695312 C 734.289062 691.613281 737.054688 677.960938 737.816406 672.980469 L 732.175781 672.0625 C 730.0625 679.019531 727.839844 682.574219 725.769531 685.0625 Z M 493.164062 685.0625 C 490.417969 688.464844 484.796875 688.851562 480.589844 688.851562 C 476.515625 688.851562 473.492188 688.746094 471.40625 687.691406 C 469.035156 686.507812 468.761719 683.222656 468.761719 676.386719 L 468.761719 631.351562 C 468.761719 617.175781 469.816406 616.273438 479.261719 615.484375 L 479.261719 610.34375 L 436.65625 610.34375 L 436.65625 615.484375 C 445.421875 616.273438 446.480469 617.175781 446.480469 631.351562 L 446.480469 674.671875 C 446.480469 688.851562 445.421875 689.804688 435.476562 690.570312 L 435.476562 695.695312 L 500.519531 695.695312 C 501.683594 691.613281 504.445312 677.960938 505.25 672.980469 L 499.613281 672.0625 C 497.496094 679.019531 495.277344 682.574219 493.164062 685.0625 Z M 226.617188 615.484375 C 234.898438 616.273438 235.933594 617.175781 235.933594 631.351562 L 235.933594 646.582031 L 208.78125 646.582031 L 208.78125 631.351562 C 208.78125 617.175781 209.835938 616.273438 217.84375 615.484375 L 217.84375 610.34375 L 175.863281 610.34375 L 175.863281 615.484375 C 185.410156 616.273438 186.46875 617.175781 186.46875 631.351562 L 186.46875 674.671875 C 186.46875 688.851562 185.410156 689.804688 176.367188 690.570312 L 176.367188 695.695312 L 218.355469 695.695312 L 218.355469 690.570312 C 209.835938 689.804688 208.78125 688.851562 208.78125 674.671875 L 208.78125 654.722656 L 235.933594 654.722656 L 235.933594 674.671875 C 235.933594 688.851562 234.898438 689.804688 225.554688 690.570312 L 225.554688 695.695312 L 268.320312 695.695312 L 268.320312 690.570312 C 259.28125 689.804688 258.226562 688.851562 258.226562 674.671875 L 258.226562 631.351562 C 258.226562 617.175781 259.28125 616.273438 268.597656 615.484375 L 268.597656 610.34375 L 226.617188 610.34375 L 226.617188 615.484375 "/>
<path style=" stroke:none;fill-rule:evenodd;fill:rgb(100%,100%,100%);fill-opacity:1;" d="M 389.332031 395.363281 C 415.796875 413.828125 430.257812 471.671875 430.257812 471.671875 C 444.695312 342.222656 326.765625 305.234375 326.765625 305.234375 C 326.765625 305.234375 324.324219 312.144531 326.765625 346.773438 C 329.140625 381.554688 362.78125 376.867188 389.332031 395.363281 "/>
<path style=" stroke:none;fill-rule:evenodd;fill:rgb(100%,100%,100%);fill-opacity:1;" d="M 317.097656 506.3125 C 326.765625 483.230469 309.867188 358.332031 309.867188 325.953125 C 309.867188 293.671875 321.878906 275.15625 321.878906 275.15625 C 305.078125 265.878906 293.089844 224.261719 293.089844 224.261719 C 288.199219 235.824219 271.398438 261.234375 271.398438 261.234375 C 271.398438 261.234375 319.535156 490.179688 288.199219 517.796875 C 256.945312 545.507812 194.320312 550.230469 158.242188 527.175781 C 122.085938 504.007812 160.59375 429.996094 160.59375 429.996094 C 138.910156 455.414062 122.085938 485.484375 124.507812 517.796875 C 126.902344 550.230469 150.976562 582.496094 208.765625 584.855469 C 266.511719 587.1875 307.429688 529.414062 317.097656 506.3125 "/>
<path style=" stroke:none;fill-rule:evenodd;fill:rgb(100%,100%,100%);fill-opacity:1;" d="M 625.269531 420.765625 C 586.078125 425.214844 564.539062 491.019531 562.796875 496.53125 C 563.714844 494.074219 569.027344 483.457031 596.378906 469.324219 C 627.691406 453.074219 690.242188 487.839844 690.242188 487.839844 C 661.40625 513.257812 608.371094 515.566406 565.066406 510.902344 C 521.746094 506.21875 524.125 413.828125 521.746094 342.222656 C 519.289062 270.566406 504.867188 277.507812 504.867188 277.507812 C 504.867188 277.507812 507.28125 245.070312 476.03125 393.027344 C 444.695312 540.902344 276.179688 577.867188 276.179688 577.867188 C 370.109375 591.796875 437.484375 547.871094 461.488281 501.667969 C 485.609375 455.414062 502.386719 358.332031 502.386719 358.332031 C 502.386719 497.066406 514.480469 531.691406 550.617188 547.871094 C 586.734375 564.125 656.554688 540.992188 707.125 522.464844 C 739.304688 510.710938 776.949219 515.566406 776.949219 515.566406 L 805.796875 471.671875 C 805.796875 471.671875 764.832031 473.917969 736.015625 462.4375 C 707.125 450.859375 666.21875 416.183594 625.269531 420.765625 "/>
</g>
</svg>
